# xmcd
#
# Track frame offsets: 
#        150
#        13437
#        30620
#        48350
#        67085
#        76865
#        91350
#        101617
#        114167
#        125872
#
# Disc length: 1936 seconds
#
# Revision: 3
# Processed by: cddbd v1.5.2PL0 Copyright (c) Steve Scherf et al.
# Submitted via: ExactAudioCopyFreeDBPlugin 1.0
#
DISCID=82078e0a
DTITLE=Lightnin' Hopkins - Lightnin' Hopkins [RE 1990]
DYEAR=1959
DGENRE=Blues
TTITLE0=Penitentiary Blues
TTITLE1=Bad Luck and Trouble
TTITLE2=Come Go Home with Me
TTITLE3=Trouble Stay 'Way from My Door
TTITLE4=See That My Grave is Kept Clean
TTITLE5=Goin' Back to Florida
TTITLE6=Reminiscenses of Blind Lemon
TTITLE7=Fan It
TTITLE8=Tell Me, Baby
TTITLE9=She's Mine
EXTD=YEAR: 1959
EXTT0=Lightnin' Hopkins
EXTT1=Lightnin' Hopkins
EXTT2=Lightnin' Hopkins
EXTT3=Lightnin' Hopkins
EXTT4=Lightnin' Hopkins
EXTT5=Lightnin' Hopkins
EXTT6=Lightnin' Hopkins
EXTT7=Lightnin' Hopkins
EXTT8=Lightnin' Hopkins
EXTT9=Lightnin' Hopkins
PLAYORDER=
